<svg xmlns="http://www.w3.org/2000/svg" width="900" height="400" viewBox="0 0 900 400" role="img" aria-label="Illustration of event gates and wayfinding">
<defs><linearGradient id="sky" x2="1" y2="1"><stop stop-color="#101e53"/><stop offset=".55" stop-color="#293e98"/><stop offset="1" stop-color="#7659c4"/></linearGradient><linearGradient id="hall" x2="0" y2="1"><stop stop-color="#a5bbff"/><stop offset="1" stop-color="#5069c4"/></linearGradient></defs>
<rect width="900" height="400" rx="28" fill="url(#sky)"/><circle cx="725" cy="79" r="126" fill="#b5a7ff" opacity=".15"/><circle cx="158" cy="347" r="180" fill="#6c82ef" opacity=".13"/>
<path d="M100 293 450 93 800 293Z" fill="#dce4ff"/><path d="M135 294 450 116 765 294Z" fill="url(#hall)"/><path d="M189 291h522v60H189z" fill="#d2dcff"/><path d="M254 204v149m97-199v199m99-255v255m99-200v200m97-150v150" stroke="#f6f7ff" stroke-width="14" opacity=".6"/><rect x="370" y="255" width="160" height="97" rx="65" fill="#13245f"/><path d="M0 356q225-59 448 0t452 0v44H0z" fill="#8b97df" opacity=".35"/>
<path d="M39 361q225-24 409-10t413 3" fill="none" stroke="#d5dbff" stroke-width="5" stroke-dasharray="5 12" opacity=".8"/><circle cx="461" cy="347" r="19" fill="#c3a6ff" stroke="#fff" stroke-width="6"/><path d="M476 343q95-65 166-55" fill="none" stroke="#bce1ff" stroke-width="6" stroke-linecap="round" stroke-dasharray="6 12"/><circle cx="643" cy="286" r="12" fill="#7bb8ff" stroke="#fff" stroke-width="5"/>
<g fill="#fff" font-family="Arial,sans-serif" font-weight="700"><text x="45" y="58" font-size="18" letter-spacing="4">EVENTFLOW</text><text x="45" y="87" font-size="13" fill="#dbe7ff">Your pass · Your gate · Your way</text></g>
</svg>
